<svg id="Layer_1" data-name="Layer 1" xmlns="http://www.w3.org/2000/svg" viewBox="0 0 1920 1080"><defs><style>.cls-1{fill:#1a2642;}.cls-2{fill:none;stroke:#fff;stroke-miterlimit:10;stroke-width:0.2px;}.cls-3{fill:#fff;}.cls-4{fill:#38455e;}</style></defs><rect class="cls-1" width="1920" height="1080"/><polyline class="cls-2" points="1198.82 257.08 1176.86 275.81 1225.56 310.02 1196.88 339.72 1204.63 385.31 1243.36 396.56 1247.88 413.79"/><circle class="cls-3" cx="1247.88" cy="413.79" r="3.4"/><circle class="cls-3" cx="1242.96" cy="397.02" r="1.61"/><circle class="cls-3" cx="1205.19" cy="385.31" r="2.99"/><circle class="cls-3" cx="1196.88" cy="340.21" r="2.1"/><circle class="cls-3" cx="1225.2" cy="310.75" r="3.63"/><circle class="cls-3" cx="1177.27" cy="275.89" r="1.78"/><circle class="cls-3" cx="1198.57" cy="257.08" r="2.71"/><circle class="cls-3" cx="1054.36" cy="410.58" r="4.2"/><circle class="cls-3" cx="967.36" cy="234.58" r="4.2"/><circle class="cls-3" cx="820.36" cy="156.58" r="4.2"/><circle class="cls-3" cx="888.92" cy="708.36" r="4.2"/><circle class="cls-3" cx="1805.92" cy="843.36" r="4.2"/><circle class="cls-3" cx="804.92" cy="494.36" r="4.2"/><circle class="cls-3" cx="1808.92" cy="498.36" r="4.2"/><circle class="cls-3" cx="233.92" cy="708.36" r="4.2"/><circle class="cls-3" cx="1763.92" cy="335.36" r="4.2"/><circle class="cls-3" cx="1120.53" cy="542.93" r="4.2"/><circle class="cls-3" cx="782.53" cy="1015.93" r="4.2"/><circle class="cls-3" cx="1414.53" cy="881.93" r="4.2"/><circle class="cls-3" cx="299.53" cy="120.93" r="4.2"/><circle class="cls-3" cx="476.53" cy="738.93" r="4.2"/><circle class="cls-3" cx="1054.36" cy="645.5" r="4.2"/><circle class="cls-3" cx="1269.36" cy="761.5" r="4.2"/><circle class="cls-3" cx="602.36" cy="355.5" r="4.2"/><circle class="cls-3" cx="1352.15" cy="509.84" r="4.2"/><circle class="cls-3" cx="1348.15" cy="359.84" r="4.2"/><circle class="cls-3" cx="1472.15" cy="97.84" r="4.2"/><circle class="cls-4" cx="1319.06" cy="609.1" r="7.77"/><circle class="cls-3" cx="1319.06" cy="609.1" r="4.2"/><circle class="cls-4" cx="1152.06" cy="847.1" r="7.77"/><circle class="cls-3" cx="1152.06" cy="847.1" r="4.2"/><circle class="cls-4" cx="992.06" cy="1028.1" r="7.77"/><circle class="cls-3" cx="992.06" cy="1028.1" r="4.2"/><circle class="cls-4" cx="370.06" cy="469.1" r="7.77"/><circle class="cls-3" cx="370.06" cy="469.1" r="4.2"/><circle class="cls-4" cx="200.06" cy="933.1" r="7.77"/><circle class="cls-3" cx="200.06" cy="933.1" r="4.2"/><circle class="cls-4" cx="55.06" cy="1036.1" r="7.77"/><circle class="cls-3" cx="55.06" cy="1036.1" r="4.2"/><circle class="cls-4" cx="176.06" cy="260.1" r="7.77"/><circle class="cls-3" cx="176.06" cy="260.1" r="4.2"/><circle class="cls-3" cx="1669.06" cy="441.1" r="4.2"/><circle class="cls-3" cx="1252.88" cy="576.01" r="4.2"/><circle class="cls-3" cx="1438.88" cy="465.01" r="4.2"/><circle class="cls-3" cx="612.88" cy="395.01" r="4.2"/><circle class="cls-3" cx="147.88" cy="445.01" r="4.2"/><circle class="cls-3" cx="1656.88" cy="798.01" r="4.2"/><circle class="cls-3" cx="1759.88" cy="102.01" r="4.2"/><circle class="cls-3" cx="1271.12" cy="484.82" r="4.2"/><circle class="cls-3" cx="1115.77" cy="420.34" r="2.48"/><circle class="cls-3" cx="1533.77" cy="364.34" r="2.48"/><circle class="cls-3" cx="1442.77" cy="239.34" r="2.48"/><circle class="cls-3" cx="960.53" cy="673.18" r="2.48"/><circle class="cls-3" cx="420.53" cy="755.18" r="2.48"/><circle class="cls-3" cx="519.53" cy="851.18" r="2.48"/><circle class="cls-3" cx="1501.53" cy="605.18" r="2.48"/><circle class="cls-3" cx="967.53" cy="878.18" r="2.48"/><circle class="cls-3" cx="1770.53" cy="702.18" r="2.48"/><circle class="cls-3" cx="1867.53" cy="639.18" r="2.48"/><circle class="cls-3" cx="606.53" cy="141.18" r="2.48"/><circle class="cls-3" cx="345.53" cy="304.18" r="2.48"/><circle class="cls-3" cx="123.53" cy="96.18" r="2.48"/><circle class="cls-3" cx="1602.53" cy="237.18" r="2.48"/><circle class="cls-3" cx="1686.53" cy="580.18" r="2.48"/><circle class="cls-3" cx="1808.53" cy="908.18" r="2.48"/><circle class="cls-3" cx="1569.53" cy="910.18" r="2.48"/><circle class="cls-3" cx="1244.53" cy="985.18" r="2.48"/><circle class="cls-3" cx="141.53" cy="764.18" r="2.48"/><circle class="cls-3" cx="432.53" cy="983.18" r="2.48"/><circle class="cls-3" cx="1051.88" cy="541.21" r="2.48"/><circle class="cls-3" cx="1672.88" cy="626.21" r="2.48"/><circle class="cls-3" cx="850.88" cy="121.21" r="2.48"/><circle class="cls-3" cx="1519.88" cy="757.21" r="2.48"/><circle class="cls-3" cx="666.88" cy="670.21" r="2.48"/><circle class="cls-3" cx="1618.88" cy="93.21" r="2.48"/><circle class="cls-3" cx="1698.88" cy="997.21" r="2.48"/><circle class="cls-3" cx="684.88" cy="855.21" r="2.48"/><circle class="cls-3" cx="585.88" cy="1016.21" r="2.48"/><circle class="cls-3" cx="1383.98" cy="595.42" r="2.48"/><circle class="cls-3" cx="1879.98" cy="203.42" r="2.48"/><circle class="cls-3" cx="1385.98" cy="675.42" r="2.48"/><circle class="cls-3" cx="1266.93" cy="560.41" r="2.48"/><circle class="cls-3" cx="359.93" cy="491.41" r="2.48"/><circle class="cls-3" cx="1307.48" cy="458.82" r="2.48"/><circle class="cls-3" cx="1213.5" cy="434.36" r="2.48"/><circle class="cls-3" cx="1208.5" cy="125.36" r="2.48"/><circle class="cls-3" cx="1154.23" cy="318.94" r="2.48"/><circle class="cls-3" cx="1307.23" cy="205.94" r="2.48"/><polyline class="cls-2" points="517 190 439.89 208.36 523 253 396 274 450 370 506.38 329.11 518 375"/><line class="cls-2" x1="551.13" y1="321.42" x2="506.38" y2="329.11"/><circle class="cls-3" cx="521.4" cy="252.89" r="4.6"/><circle class="cls-3" cx="396.4" cy="273.89" r="3.11"/><circle class="cls-3" cx="440.4" cy="207.89" r="2.11"/><circle class="cls-3" cx="450.4" cy="369.89" r="3.6"/><circle class="cls-3" cx="517.4" cy="189.89" r="2.11"/><circle class="cls-3" cx="518.4" cy="374.89" r="3.11"/><circle class="cls-3" cx="551.4" cy="320.89" r="2.11"/></svg>